<?xml version="1.0" encoding="UTF-8"?>
<svg id="Layer_2" data-name="Layer 2" xmlns="http://www.w3.org/2000/svg" viewBox="0 0 500 244.44">
  <defs>
    <style>
      .cls-1 {
        fill: #3a949b;
      }

      .cls-2 {
        fill: #fb867c;
      }

      .cls-3 {
        fill: #59b3be;
        opacity: .83;
      }

      .cls-4 {
        fill: #356277;
      }

      .cls-5 {
        fill: #ffa990;
      }
    </style>
  </defs>
  <g id="Layer_3" data-name="Layer 3">
    <path class="cls-3" d="m440.36,58.7c0,2.49.19,4.93.52,7.33-3.45-.42-6.99-.63-10.58-.63-28.21,0-52.49,13.27-63.46,32.34-.58-.02-1.16-.03-1.75-.03-16.91,0-31.94,6.35-41.51,16.19-6.08-1.72-12.63-2.66-19.46-2.66-11.8,0-22.78,2.8-31.93,7.59-9.26-6.55-21.47-10.53-34.87-10.53-11.31,0-21.77,2.85-30.33,7.67-10.06-13.57-28.68-22.68-50-22.68-7.12,0-13.94,1.02-20.24,2.88-3.49-9.73-16.42-11.82-25.44-9.23C49.42,115.99,12.17,147.71.94,207.78h499.06v-83.83h-.15c.09-1.12.15-2.25.15-3.4,0-1.06-.05-2.12-.12-3.16.04,0,.08,0,.12,0V0c-33.42,2.62-59.64,27.89-59.64,58.7Z"/>
    <path class="cls-5" d="m245.09,214.06h-109.38v-89.27c0-12.94,2.38-23.99,7.12-33.15,4.74-9.16,11.27-16.22,19.57-21.19,8.3-4.96,17.85-7.44,28.63-7.44,13.37,0,24.9,4.26,34.61,12.78,6.84,6,11.96,13.42,15.37,22.26m0,0c.88-5.21,2.9-10.72,8.4-19.67,5.5-8.95,12.4-15.74,20.7-20.38,8.3-4.63,17.74-6.95,28.3-6.95,9.49,0,18.11,1.46,25.88,4.37,7.76,2.91,14.45,7.44,20.05,13.58,5.61,6.15,9.98,13.86,13.1,23.13,3.13,9.27,4.69,20.27,4.69,32.99v88.95h-117.04"/>
    <path class="cls-2" d="m357.44,92.12c-3.12-9.27-7.49-16.98-13.1-23.13-5.61-6.15-12.29-10.67-20.05-13.58-7.76-2.91-16.38-4.37-25.88-4.37-10.56,0-20,2.32-28.3,6.95-8.3,4.64-15.2,11.43-20.7,20.38-5.5,8.95-7.52,14.46-8.4,19.67l1.83,116.02h119.29v-88.95c0-12.72-1.56-23.72-4.69-32.99Z"/>
    <path d="m294.69,94.77c5.42-7.17,9.17-13.98,15.4-2.66.45.88.92,1.74,1.3,2.66l-.08.05c-8.35-12.53-7.9-8-16.61-.06h0Z"/>
    <path d="m218.7,112.6c-3.48,5.12-8.72,9.75-14.95,11.12-8.34,2.1-16.74-3.32-21.15-10.08,0,0,.14-.14.14-.14,7.95,8,17.45,11.86,27.74,5.41,2.95-1.79,5.6-4.04,8.08-6.45l.14.14h0Z"/>
    <path d="m183.57,109.8c4.54-6.68,8.2-12.51,13.56-2.38.38.79.79,1.56,1.11,2.39l-.08.05c-7.36-11.05-6.96-7.29-14.59-.06h0Z"/>
    <path d="m202.13,109.8c4.61-6.46,8.23-12.38,13.57-2.36.38.79.79,1.55,1.1,2.37l-.08.05c-7.35-11.03-6.94-6.95-14.59-.06h0Z"/>
    <path d="m313.54,97.94c-4.1,5.68-9.99,10.9-17.06,12.43-9.55,2.33-18.75-3.71-24.02-11.25,0,0,.14-.14.14-.14,9.1,9.13,19.83,13.53,31.61,6.17,3.36-2.04,6.38-4.61,9.2-7.36l.14.14h0Z"/>
    <path d="m273.55,94.77c5.35-7.42,9.14-14.12,15.39-2.68.45.89.93,1.76,1.31,2.69l-.08.05c-8.34-12.53-7.93-8.39-16.61-.06h0Z"/>
    <path class="cls-1" d="m499,67.7c-7.04-4.17-15-6.53-23.44-6.53-14.4,0-27.43,6.85-36.83,17.9-7.31-7.56-16.93-12.15-27.47-12.15-22.88,0-41.43,21.62-41.43,48.29,0,4.23.47,8.34,1.35,12.25-13.75,2.4-24.31,16.19-24.31,32.88,0,18.39,12.79,33.29,28.56,33.29s27.41-13.64,28.46-30.91c2.39.5,4.85.78,7.37.78,8.01,0,15.48-2.66,21.82-7.24,9.38,15.59,24.9,25.79,42.48,25.79,8.44,0,16.4-2.36,23.44-6.53v-107.83Z"/>
    <path class="cls-1" d="m57.61,153.19c6.8,4.96,14.82,7.84,23.42,7.84,2.7,0,5.34-.3,7.91-.84,1.13,18.69,14.36,33.46,30.55,33.46s30.66-16.13,30.66-36.03c0-18.07-11.33-32.99-26.09-35.59.94-4.24,1.45-8.68,1.45-13.26,0-3.75-.74-7-1.98-9.9-6.08-14.24-22.2-15.96-36.97-11.3-22.95,7.25-34.51,24-28.95,65.63Z"/>
    <path class="cls-4" d="m440.36,126.66c0,1.6.06,3.19.18,4.76.13,1.77-1.34,3.22-3.1,3.06-2.35-.21-4.73-.32-7.14-.32-27.51,0-51.28,14.11-62.62,34.6-.52.94-1.5,1.54-2.57,1.54h-.02c-16.21,0-30.7,6.53-40.3,16.77-.75.8-1.87,1.12-2.93.82-5.59-1.59-11.55-2.46-17.73-2.46-11.11,0-21.48,2.77-30.3,7.57-.97.53-2.16.5-3.05-.16-9.07-6.68-20.73-10.7-33.45-10.7-10.36,0-20.01,2.67-28.13,7.27-1.25.71-2.82.36-3.67-.79-10.34-14.01-28.21-23.27-48.53-23.27-6.17,0-12.1.86-17.68,2.44-1.43.4-2.92-.36-3.43-1.75-9.1-25.21-34.08-52.54-64.93-52.54-7.04,0-17.57.43-21.9,2.65-26.61,13.64-36.17,46.65-44.49,74.09C1.46,200.49,0,211.18,0,221.9v19.7c0,1.57,1.28,2.85,2.85,2.85h494.3c1.57,0,2.85-1.28,2.85-2.85v-41.93h-.15c.09-1.25.15-2.52.15-3.8,0-1.19-.05-2.37-.12-3.54.04,0,.08,0,.12,0V64.2c0-1.73-1.53-3.07-3.24-2.83-31.86,4.41-56.41,31.96-56.41,65.3Z"/>
  </g>
</svg>